<svg xmlns="http://www.w3.org/2000/svg" xmlns:xlink="http://www.w3.org/1999/xlink" width="25" height="25" viewBox="0 0 6.615 6.615" id="user"><defs><linearGradient id="b"><stop offset="0" stop-color="#cfd8dd"></stop><stop offset="1" stop-color="#b2c0ca"></stop></linearGradient><linearGradient id="a"><stop offset="0" stop-color="#1fa9de"></stop><stop offset="1" stop-color="#02578c"></stop></linearGradient><linearGradient id="c" x1="27.533" x2="32.064" y1="3.241" y2="3.208" gradientUnits="userSpaceOnUse" xlink:href="#a"></linearGradient><linearGradient id="d" x1="106.688" x2="118.125" y1="15" y2="14.875" gradientUnits="userSpaceOnUse" xlink:href="#b"></linearGradient></defs><g paint-order="markers stroke fill"><path fill="none" stroke="#000" stroke-linecap="round" stroke-linejoin="round" stroke-width=".265" d="M3.308 1.862c.36 0 .65.294.65.66 0 .364-.29.658-.65.658a.653.653 0 0 1-.65-.659c0-.365.29-.66.65-.66z"></path><path fill="url(#c)" style="line-height:normal;font-variant-ligatures:normal;font-variant-position:normal;font-variant-caps:normal;font-variant-numeric:normal;font-variant-alternates:normal;font-feature-settings:normal;text-indent:0;text-align:start;text-decoration-line:none;text-decoration-style:solid;text-decoration-color:#000;text-transform:none;text-orientation:mixed;shape-padding:0;isolation:auto;mix-blend-mode:normal" d="M29.766.672c-1.44 0-2.602 1.178-2.602 2.635 0 1.457 1.162 2.636 2.602 2.636s2.601-1.18 2.601-2.636c0-1.457-1.162-2.635-2.601-2.635z" color="#000" font-family="sans-serif" font-weight="400" overflow="visible" transform="translate(-26.458)"></path><path fill="url(#d)" style="line-height:normal;font-variant-ligatures:normal;font-variant-position:normal;font-variant-caps:normal;font-variant-numeric:normal;font-variant-alternates:normal;font-feature-settings:normal;text-indent:0;text-align:start;text-decoration-line:none;text-decoration-style:solid;text-decoration-color:#000;text-transform:none;text-orientation:mixed;shape-padding:0;isolation:auto;mix-blend-mode:normal" d="M112.5 6.541c-1.633 0-2.96 1.343-2.96 2.988s1.327 2.99 2.96 2.99 2.96-1.345 2.96-2.99c0-1.645-1.327-2.988-2.96-2.988zm.016 7.496c-1.25 0-2.376.341-3.362.854-.986.512-1.832 1.196-2.521 1.879-1.025 1.015-1.438 1.637-1.719 2.091 1.802 2.19 4.544 3.602 7.586 3.602 3.043 0 5.852-1.383 7.576-3.608-.279-.454-.675-1.071-1.693-2.085-.686-.683-1.527-1.367-2.51-1.88-.983-.512-2.107-.853-3.357-.853z" color="#000" font-family="sans-serif" font-weight="400" overflow="visible" transform="translate(-26.458) scale(.26458)"></path></g></svg>